<svg width="92" height="92" viewBox="0 0 92 92" fill="none" xmlns="http://www.w3.org/2000/svg">
<g filter="url(#filter0_bi_1127_50031)">
<path d="M14.8818 65.1154C15.111 64.648 15.7744 64.6398 16.015 65.1014L17.6394 68.2176C17.702 68.3377 17.8013 68.4346 17.9229 68.4942L21.0781 70.0415C21.5455 70.2707 21.5536 70.9341 21.092 71.1747L17.9758 72.7991C17.8558 72.8617 17.7588 72.961 17.6992 73.0826L16.1519 76.2378C15.9227 76.7052 15.2594 76.7134 15.0187 76.2517L13.3943 73.1356C13.3317 73.0155 13.2324 72.9186 13.1108 72.8589L9.95566 71.3117C9.48825 71.0824 9.48009 70.4191 9.94172 70.1784L13.0579 68.554C13.178 68.4915 13.2749 68.3921 13.3345 68.2706L14.8818 65.1154Z" fill="url(#paint0_linear_1127_50031)" fill-opacity="0.9"/>
</g>
<g filter="url(#filter1_bi_1127_50031)">
<circle cx="78.5103" cy="16.7828" r="1.53959" fill="url(#paint1_linear_1127_50031)" fill-opacity="0.9"/>
</g>
<g filter="url(#filter2_bi_1127_50031)">
<circle cx="14.1549" cy="17.0904" r="0.615837" fill="url(#paint2_linear_1127_50031)" fill-opacity="0.9"/>
</g>
<g filter="url(#filter3_bi_1127_50031)">
<circle cx="74.199" cy="48.8064" r="2.77127" fill="url(#paint3_linear_1127_50031)" fill-opacity="0.9"/>
</g>
<g filter="url(#filter4_bi_1127_50031)">
<circle cx="10.2548" cy="18.4501" r="2.31925" fill="url(#paint4_linear_1127_50031)" fill-opacity="0.9"/>
</g>
<g filter="url(#filter5_b_1127_50031)">
<path d="M19.5704 26.1658C19.5704 21.3454 23.4182 17.5 28.2415 17.5L28.2419 36.0562C28.2419 36.9894 27.497 37.7338 26.5632 37.7338L20.989 37.7338C20.2113 37.7338 19.5704 37.0933 19.5704 36.3161L19.5704 26.1658Z" fill="url(#paint5_linear_1127_50031)" fill-opacity="0.9"/>
<path d="M19.5704 26.1658C19.5704 21.3454 23.4182 17.5 28.2415 17.5L28.2419 36.0562C28.2419 36.9894 27.497 37.7338 26.5632 37.7338L20.989 37.7338C20.2113 37.7338 19.5704 37.0933 19.5704 36.3161L19.5704 26.1658Z" fill="url(#paint6_linear_1127_50031)" fill-opacity="0.9"/>
</g>
<g filter="url(#filter6_bdi_1127_50031)">
<path d="M27.0498 17.5L54.0398 17.5L65.8822 17.5C66.8493 17.5 67.6462 18.2964 67.6462 19.2629L67.6462 77.3666C67.6462 78.6078 66.3703 79.4086 65.2328 78.8814L60.673 76.768C60.177 76.5381 59.6074 76.5524 59.1356 76.8065L54.8816 79.0971C54.3588 79.3786 53.7202 79.3639 53.1963 79.0583L49.4396 76.8669C48.942 76.5766 48.3389 76.5479 47.8292 76.7902L42.8221 79.17C42.3205 79.4084 41.7281 79.3847 41.2344 79.1064L37.1539 76.8061C36.701 76.5508 36.1625 76.5086 35.686 76.6912L29.4218 79.0912C28.2895 79.525 27.0498 78.6622 27.0498 77.4403L27.0498 17.5Z" fill="url(#paint7_linear_1127_50031)" fill-opacity="0.9" shape-rendering="crispEdges"/>
<path d="M27.0498 17.5L54.0398 17.5L65.8822 17.5C66.8493 17.5 67.6462 18.2964 67.6462 19.2629L67.6462 77.3666C67.6462 78.6078 66.3703 79.4086 65.2328 78.8814L60.673 76.768C60.177 76.5381 59.6074 76.5524 59.1356 76.8065L54.8816 79.0971C54.3588 79.3786 53.7202 79.3639 53.1963 79.0583L49.4396 76.8669C48.942 76.5766 48.3389 76.5479 47.8292 76.7902L42.8221 79.17C42.3205 79.4084 41.7281 79.3847 41.2344 79.1064L37.1539 76.8061C36.701 76.5508 36.1625 76.5086 35.686 76.6912L29.4218 79.0912C28.2895 79.525 27.0498 78.6622 27.0498 77.4403L27.0498 17.5Z" fill="url(#paint8_linear_1127_50031)" fill-opacity="0.9" shape-rendering="crispEdges"/>
</g>
<line x1="0.974313" y1="-0.974313" x2="19.9646" y2="-0.974313" transform="matrix(-0.99992 -0.0126697 -0.0121371 -0.999926 63.2744 52.9883)" stroke="white" stroke-width="1.94863" stroke-linecap="round"/>
<line x1="0.974313" y1="-0.974313" x2="8.23881" y2="-0.974313" transform="matrix(-0.99992 -0.0126697 -0.0121371 -0.999926 63.1777 49.0918)" stroke="white" stroke-width="1.94863" stroke-linecap="round"/>
<path d="M62.8864 58.8672L62.9135 59.9603H60.6986C61.1418 60.3107 61.4477 60.7732 61.5874 61.3197H62.9473L62.9747 62.4269H61.6429C61.4927 63.7162 60.5715 64.445 59.6795 64.6552L61.8847 68.2149H59.5856L57.6667 64.8935H56.1667L56.127 63.2958H58.2719C58.9589 63.2958 59.4552 62.9594 59.6382 62.4269H56.1055L56.078 61.3197H59.6248C59.415 60.7732 58.9026 60.4648 58.2017 60.4648H56.0568L56.0172 58.8672L62.8864 58.8672Z" fill="white"/>
<defs>
<filter id="filter0_bi_1127_50031" x="8.33059" y="63.4898" width="14.373" height="15.643" filterUnits="userSpaceOnUse" color-interpolation-filters="sRGB">
<feFlood flood-opacity="0" result="BackgroundImageFix"/>
<feGaussianBlur in="BackgroundImageFix" stdDeviation="0.634998"/>
<feComposite in2="SourceAlpha" operator="in" result="effect1_backgroundBlur_1127_50031"/>
<feBlend mode="normal" in="SourceGraphic" in2="effect1_backgroundBlur_1127_50031" result="shape"/>
<feColorMatrix in="SourceAlpha" type="matrix" values="0 0 0 0 0 0 0 0 0 0 0 0 0 0 0 0 0 0 127 0" result="hardAlpha"/>
<feOffset dx="0.634998" dy="2.53999"/>
<feGaussianBlur stdDeviation="1.58749"/>
<feComposite in2="hardAlpha" operator="arithmetic" k2="-1" k3="1"/>
<feColorMatrix type="matrix" values="0 0 0 0 1 0 0 0 0 1 0 0 0 0 1 0 0 0 0.47 0"/>
<feBlend mode="normal" in2="shape" result="effect2_innerShadow_1127_50031"/>
</filter>
<filter id="filter1_bi_1127_50031" x="75.976" y="14.2484" width="5.06855" height="6.06328" filterUnits="userSpaceOnUse" color-interpolation-filters="sRGB">
<feFlood flood-opacity="0" result="BackgroundImageFix"/>
<feGaussianBlur in="BackgroundImageFix" stdDeviation="0.497363"/>
<feComposite in2="SourceAlpha" operator="in" result="effect1_backgroundBlur_1127_50031"/>
<feBlend mode="normal" in="SourceGraphic" in2="effect1_backgroundBlur_1127_50031" result="shape"/>
<feColorMatrix in="SourceAlpha" type="matrix" values="0 0 0 0 0 0 0 0 0 0 0 0 0 0 0 0 0 0 127 0" result="hardAlpha"/>
<feOffset dx="0.497363" dy="1.98945"/>
<feGaussianBlur stdDeviation="1.24341"/>
<feComposite in2="hardAlpha" operator="arithmetic" k2="-1" k3="1"/>
<feColorMatrix type="matrix" values="0 0 0 0 1 0 0 0 0 1 0 0 0 0 1 0 0 0 0.47 0"/>
<feBlend mode="normal" in2="shape" result="effect2_innerShadow_1127_50031"/>
</filter>
<filter id="filter2_bi_1127_50031" x="12.5443" y="15.4799" width="3.2209" height="4.21562" filterUnits="userSpaceOnUse" color-interpolation-filters="sRGB">
<feFlood flood-opacity="0" result="BackgroundImageFix"/>
<feGaussianBlur in="BackgroundImageFix" stdDeviation="0.497363"/>
<feComposite in2="SourceAlpha" operator="in" result="effect1_backgroundBlur_1127_50031"/>
<feBlend mode="normal" in="SourceGraphic" in2="effect1_backgroundBlur_1127_50031" result="shape"/>
<feColorMatrix in="SourceAlpha" type="matrix" values="0 0 0 0 0 0 0 0 0 0 0 0 0 0 0 0 0 0 127 0" result="hardAlpha"/>
<feOffset dx="0.497363" dy="1.98945"/>
<feGaussianBlur stdDeviation="1.24341"/>
<feComposite in2="hardAlpha" operator="arithmetic" k2="-1" k3="1"/>
<feColorMatrix type="matrix" values="0 0 0 0 1 0 0 0 0 1 0 0 0 0 1 0 0 0 0.47 0"/>
<feBlend mode="normal" in2="shape" result="effect2_innerShadow_1127_50031"/>
</filter>
<filter id="filter3_bi_1127_50031" x="70.433" y="45.0404" width="7.53242" height="8.52715" filterUnits="userSpaceOnUse" color-interpolation-filters="sRGB">
<feFlood flood-opacity="0" result="BackgroundImageFix"/>
<feGaussianBlur in="BackgroundImageFix" stdDeviation="0.497363"/>
<feComposite in2="SourceAlpha" operator="in" result="effect1_backgroundBlur_1127_50031"/>
<feBlend mode="normal" in="SourceGraphic" in2="effect1_backgroundBlur_1127_50031" result="shape"/>
<feColorMatrix in="SourceAlpha" type="matrix" values="0 0 0 0 0 0 0 0 0 0 0 0 0 0 0 0 0 0 127 0" result="hardAlpha"/>
<feOffset dx="0.497363" dy="1.98945"/>
<feGaussianBlur stdDeviation="1.24341"/>
<feComposite in2="hardAlpha" operator="arithmetic" k2="-1" k3="1"/>
<feColorMatrix type="matrix" values="0 0 0 0 1 0 0 0 0 1 0 0 0 0 1 0 0 0 0.47 0"/>
<feBlend mode="normal" in2="shape" result="effect2_innerShadow_1127_50031"/>
</filter>
<filter id="filter4_bi_1127_50031" x="6.94082" y="15.1361" width="6.62812" height="7.62285" filterUnits="userSpaceOnUse" color-interpolation-filters="sRGB">
<feFlood flood-opacity="0" result="BackgroundImageFix"/>
<feGaussianBlur in="BackgroundImageFix" stdDeviation="0.497363"/>
<feComposite in2="SourceAlpha" operator="in" result="effect1_backgroundBlur_1127_50031"/>
<feBlend mode="normal" in="SourceGraphic" in2="effect1_backgroundBlur_1127_50031" result="shape"/>
<feColorMatrix in="SourceAlpha" type="matrix" values="0 0 0 0 0 0 0 0 0 0 0 0 0 0 0 0 0 0 127 0" result="hardAlpha"/>
<feOffset dx="0.497363" dy="1.98945"/>
<feGaussianBlur stdDeviation="1.24341"/>
<feComposite in2="hardAlpha" operator="arithmetic" k2="-1" k3="1"/>
<feColorMatrix type="matrix" values="0 0 0 0 1 0 0 0 0 1 0 0 0 0 1 0 0 0 0.47 0"/>
<feBlend mode="normal" in2="shape" result="effect2_innerShadow_1127_50031"/>
</filter>
<filter id="filter5_b_1127_50031" x="15.5506" y="13.4803" width="16.7112" height="28.2728" filterUnits="userSpaceOnUse" color-interpolation-filters="sRGB">
<feFlood flood-opacity="0" result="BackgroundImageFix"/>
<feGaussianBlur in="BackgroundImageFix" stdDeviation="2.00984"/>
<feComposite in2="SourceAlpha" operator="in" result="effect1_backgroundBlur_1127_50031"/>
<feBlend mode="normal" in="SourceGraphic" in2="effect1_backgroundBlur_1127_50031" result="shape"/>
</filter>
<filter id="filter6_bdi_1127_50031" x="23.0301" y="13.4803" width="48.636" height="69.8724" filterUnits="userSpaceOnUse" color-interpolation-filters="sRGB">
<feFlood flood-opacity="0" result="BackgroundImageFix"/>
<feGaussianBlur in="BackgroundImageFix" stdDeviation="2.00984"/>
<feComposite in2="SourceAlpha" operator="in" result="effect1_backgroundBlur_1127_50031"/>
<feColorMatrix in="SourceAlpha" type="matrix" values="0 0 0 0 0 0 0 0 0 0 0 0 0 0 0 0 0 0 127 0" result="hardAlpha"/>
<feOffset dx="-1"/>
<feGaussianBlur stdDeviation="1.35"/>
<feComposite in2="hardAlpha" operator="out"/>
<feColorMatrix type="matrix" values="0 0 0 0 0 0 0 0 0 0 0 0 0 0 0 0 0 0 0.25 0"/>
<feBlend mode="normal" in2="effect1_backgroundBlur_1127_50031" result="effect2_dropShadow_1127_50031"/>
<feBlend mode="normal" in="SourceGraphic" in2="effect2_dropShadow_1127_50031" result="shape"/>
<feColorMatrix in="SourceAlpha" type="matrix" values="0 0 0 0 0 0 0 0 0 0 0 0 0 0 0 0 0 0 127 0" result="hardAlpha"/>
<feOffset dx="3" dy="3"/>
<feGaussianBlur stdDeviation="2.15"/>
<feComposite in2="hardAlpha" operator="arithmetic" k2="-1" k3="1"/>
<feColorMatrix type="matrix" values="0 0 0 0 1 0 0 0 0 1 0 0 0 0 1 0 0 0 0.46 0"/>
<feBlend mode="normal" in2="shape" result="effect3_innerShadow_1127_50031"/>
</filter>
<linearGradient id="paint0_linear_1127_50031" x1="7.02585" y1="77.3419" x2="29.5727" y2="67.5432" gradientUnits="userSpaceOnUse">
<stop offset="0.0675263" stop-color="#CD50ED"/>
<stop offset="0.755238" stop-color="#2ABDD1" stop-opacity="0.88"/>
</linearGradient>
<linearGradient id="paint1_linear_1127_50031" x1="76.5372" y1="18.2927" x2="81.7541" y2="16.1014" gradientUnits="userSpaceOnUse">
<stop offset="0.0675263" stop-color="#CD50ED"/>
<stop offset="0.755238" stop-color="#2ABDD1" stop-opacity="0.88"/>
</linearGradient>
<linearGradient id="paint2_linear_1127_50031" x1="13.3657" y1="17.6944" x2="15.4524" y2="16.8179" gradientUnits="userSpaceOnUse">
<stop offset="0.0675263" stop-color="#CD50ED"/>
<stop offset="0.755238" stop-color="#2ABDD1" stop-opacity="0.88"/>
</linearGradient>
<linearGradient id="paint3_linear_1127_50031" x1="70.6475" y1="51.5244" x2="80.0379" y2="47.58" gradientUnits="userSpaceOnUse">
<stop offset="0.0675263" stop-color="#CD50ED"/>
<stop offset="0.755238" stop-color="#2ABDD1" stop-opacity="0.88"/>
</linearGradient>
<linearGradient id="paint4_linear_1127_50031" x1="7.28256" y1="20.7247" x2="15.1413" y2="17.4237" gradientUnits="userSpaceOnUse">
<stop offset="0.0675263" stop-color="#CD50ED"/>
<stop offset="0.755238" stop-color="#2ABDD1" stop-opacity="0.88"/>
</linearGradient>
<linearGradient id="paint5_linear_1127_50031" x1="-19.2766" y1="91.0391" x2="49.9599" y2="52.9658" gradientUnits="userSpaceOnUse">
<stop offset="0.106893" stop-color="#AF60C2"/>
<stop offset="0.570355" stop-color="#FF467C"/>
<stop offset="0.939608" stop-color="#FF8F09"/>
</linearGradient>
<linearGradient id="paint6_linear_1127_50031" x1="10.8633" y1="45.8273" x2="50.9177" y2="31.8191" gradientUnits="userSpaceOnUse">
<stop offset="0.106893" stop-color="#9E45BC"/>
<stop offset="0.520842" stop-color="#5E79E8"/>
</linearGradient>
<linearGradient id="paint7_linear_1127_50031" x1="20.5772" y1="87.442" x2="89.8137" y2="49.3686" gradientUnits="userSpaceOnUse">
<stop offset="0.106893" stop-color="#AF60C2"/>
<stop offset="0.570355" stop-color="#FF467C"/>
<stop offset="0.939608" stop-color="#FF8F09"/>
</linearGradient>
<linearGradient id="paint8_linear_1127_50031" x1="15.0635" y1="97.7522" x2="94.9499" y2="52.7784" gradientUnits="userSpaceOnUse">
<stop offset="0.106893" stop-color="#B452D5"/>
<stop offset="0.409845" stop-color="#5E79E8"/>
<stop offset="1" stop-color="#62D9FC"/>
</linearGradient>
</defs>
</svg>
