<svg width="99" height="122" viewBox="0 0 99 122" fill="none" xmlns="http://www.w3.org/2000/svg">
<g opacity="0.4" filter="url(#filter0_f_1681_18816)">
<ellipse cx="47.9721" cy="92.6142" rx="22.8286" ry="7.38571" fill="#AB67C9" fill-opacity="0.59"/>
</g>
<g opacity="0.4" filter="url(#filter1_f_1681_18816)">
<ellipse cx="47.9721" cy="92.6142" rx="22.8286" ry="7.38571" fill="#AB67C9" fill-opacity="0.59"/>
</g>
<g opacity="0.4" filter="url(#filter2_f_1681_18816)">
<ellipse cx="47.9721" cy="92.6142" rx="22.8286" ry="7.38571" fill="#AB67C9" fill-opacity="0.59"/>
</g>
<g filter="url(#filter3_bdi_1681_18816)">
<path d="M44.1287 8.72498C46.2727 7.11863 49.2294 7.15676 51.3312 8.81785C60.1963 15.8241 70.3454 21.0299 81.2077 24.1426L84.113 24.9751C87.6984 26.0025 89.833 29.6774 88.9493 33.3008L80.6888 67.1687C78.4086 76.5175 72.2263 84.4384 63.7111 88.9207L50.2127 96.0262C48.6771 96.8345 46.8457 96.8512 45.2956 96.071L31.9277 89.3422C22.5376 84.6156 15.7771 75.9097 13.5231 65.6417L6.45265 33.4319C5.6338 29.7016 7.83351 25.9719 11.4942 24.8836L13.2405 24.3644C24.2216 21.0998 34.5361 15.9122 43.7043 9.04294L44.1287 8.72498Z" fill="url(#paint0_linear_1681_18816)" fill-opacity="0.9" shape-rendering="crispEdges"/>
<path d="M44.1287 8.72498C46.2727 7.11863 49.2294 7.15676 51.3312 8.81785C60.1963 15.8241 70.3454 21.0299 81.2077 24.1426L84.113 24.9751C87.6984 26.0025 89.833 29.6774 88.9493 33.3008L80.6888 67.1687C78.4086 76.5175 72.2263 84.4384 63.7111 88.9207L50.2127 96.0262C48.6771 96.8345 46.8457 96.8512 45.2956 96.071L31.9277 89.3422C22.5376 84.6156 15.7771 75.9097 13.5231 65.6417L6.45265 33.4319C5.6338 29.7016 7.83351 25.9719 11.4942 24.8836L13.2405 24.3644C24.2216 21.0998 34.5361 15.9122 43.7043 9.04294L44.1287 8.72498Z" fill="url(#paint1_linear_1681_18816)" fill-opacity="0.9" shape-rendering="crispEdges"/>
</g>
<g filter="url(#filter4_bi_1681_18816)">
<path d="M45.0127 15.6155C46.6291 14.4044 48.8583 14.4332 50.4429 15.6855C58.2034 21.8187 67.0879 26.3759 76.5966 29.1007L79.1026 29.8188C81.8713 30.6121 83.5156 33.4543 82.8233 36.25L75.5197 65.745C73.5743 73.6011 68.3759 80.2571 61.2252 84.0477L49.2465 90.3975C48.3056 90.8963 47.1838 90.9191 46.2234 90.4589L33.8819 84.5451C25.4028 80.4821 19.3562 72.6349 17.5886 63.4003L12.4027 36.306C11.8527 33.4321 13.5695 30.6089 16.3743 29.775L18.0013 29.2913C27.6052 26.4361 36.6261 21.8991 44.6445 15.8914L45.0127 15.6155Z" stroke="white" stroke-width="1.34286"/>
</g>
<path d="M52.6368 85.6578L67.5029 59.1609C75.68 44.5863 65.3214 26.564 48.6118 26.2935C39.8958 26.1524 31.9134 31.1546 28.2395 39.0597L14.801 67.9755C14.3058 69.041 14.7247 70.3078 15.7575 70.8679L37.1321 82.4609C41.1964 84.6653 45.762 85.7805 50.3849 85.698L52.6368 85.6578Z" fill="url(#paint2_linear_1681_18816)" fill-opacity="0.22"/>
<g filter="url(#filter5_i_1681_18816)">
<path d="M46.2171 38.2581C46.7694 36.5582 49.1743 36.5582 49.7267 38.2581L51.7785 44.573C52.0255 45.3332 52.7339 45.8479 53.5333 45.8479H60.1731C61.9605 45.8479 62.7037 48.1351 61.2576 49.1857L55.8859 53.0885C55.2392 53.5583 54.9686 54.3912 55.2156 55.1514L57.2674 61.4662C57.8198 63.1661 55.8742 64.5797 54.4281 63.5291L49.0564 59.6263C48.4097 59.1565 47.534 59.1565 46.8874 59.6263L41.5156 63.5291C40.0696 64.5797 38.124 63.1661 38.6763 61.4662L40.7281 55.1514C40.9751 54.3912 40.7045 53.5583 40.0579 53.0885L34.6861 49.1857C33.2401 48.1351 33.9833 45.8479 35.7706 45.8479H42.4105C43.2098 45.8479 43.9182 45.3332 44.1653 44.573L46.2171 38.2581Z" fill="url(#paint3_linear_1681_18816)"/>
</g>
<defs>
<filter id="filter0_f_1681_18816" x="3.90506" y="63.99" width="88.1342" height="57.2485" filterUnits="userSpaceOnUse" color-interpolation-filters="sRGB">
<feFlood flood-opacity="0" result="BackgroundImageFix"/>
<feBlend mode="normal" in="SourceGraphic" in2="BackgroundImageFix" result="shape"/>
<feGaussianBlur stdDeviation="10.6192" result="effect1_foregroundBlur_1681_18816"/>
</filter>
<filter id="filter1_f_1681_18816" x="3.90506" y="63.99" width="88.1342" height="57.2485" filterUnits="userSpaceOnUse" color-interpolation-filters="sRGB">
<feFlood flood-opacity="0" result="BackgroundImageFix"/>
<feBlend mode="normal" in="SourceGraphic" in2="BackgroundImageFix" result="shape"/>
<feGaussianBlur stdDeviation="10.6192" result="effect1_foregroundBlur_1681_18816"/>
</filter>
<filter id="filter2_f_1681_18816" x="3.90506" y="63.99" width="88.1342" height="57.2485" filterUnits="userSpaceOnUse" color-interpolation-filters="sRGB">
<feFlood flood-opacity="0" result="BackgroundImageFix"/>
<feBlend mode="normal" in="SourceGraphic" in2="BackgroundImageFix" result="shape"/>
<feGaussianBlur stdDeviation="10.6192" result="effect1_foregroundBlur_1681_18816"/>
</filter>
<filter id="filter3_bdi_1681_18816" x="0.233696" y="0.0221167" width="97.9138" height="104.146" filterUnits="userSpaceOnUse" color-interpolation-filters="sRGB">
<feFlood flood-opacity="0" result="BackgroundImageFix"/>
<feGaussianBlur in="BackgroundImageFix" stdDeviation="2.3048"/>
<feComposite in2="SourceAlpha" operator="in" result="effect1_backgroundBlur_1681_18816"/>
<feColorMatrix in="SourceAlpha" type="matrix" values="0 0 0 0 0 0 0 0 0 0 0 0 0 0 0 0 0 0 127 0" result="hardAlpha"/>
<feOffset dx="1.47525"/>
<feGaussianBlur stdDeviation="3.76189"/>
<feComposite in2="hardAlpha" operator="out"/>
<feColorMatrix type="matrix" values="0 0 0 0 0 0 0 0 0 0 0 0 0 0 0 0 0 0 0.19 0"/>
<feBlend mode="normal" in2="effect1_backgroundBlur_1681_18816" result="effect2_dropShadow_1681_18816"/>
<feBlend mode="normal" in="SourceGraphic" in2="effect2_dropShadow_1681_18816" result="shape"/>
<feColorMatrix in="SourceAlpha" type="matrix" values="0 0 0 0 0 0 0 0 0 0 0 0 0 0 0 0 0 0 127 0" result="hardAlpha"/>
<feOffset dy="4.11851"/>
<feGaussianBlur stdDeviation="1.53653"/>
<feComposite in2="hardAlpha" operator="arithmetic" k2="-1" k3="1"/>
<feColorMatrix type="matrix" values="0 0 0 0 1 0 0 0 0 0.91436 0 0 0 0 0.91436 0 0 0 0.63 0"/>
<feBlend mode="normal" in2="shape" result="effect3_innerShadow_1681_18816"/>
</filter>
<filter id="filter4_bi_1681_18816" x="7.6294" y="10.0552" width="80.0234" height="85.4043" filterUnits="userSpaceOnUse" color-interpolation-filters="sRGB">
<feFlood flood-opacity="0" result="BackgroundImageFix"/>
<feGaussianBlur in="BackgroundImageFix" stdDeviation="1.99975"/>
<feComposite in2="SourceAlpha" operator="in" result="effect1_backgroundBlur_1681_18816"/>
<feBlend mode="normal" in="SourceGraphic" in2="effect1_backgroundBlur_1681_18816" result="shape"/>
<feColorMatrix in="SourceAlpha" type="matrix" values="0 0 0 0 0 0 0 0 0 0 0 0 0 0 0 0 0 0 127 0" result="hardAlpha"/>
<feOffset dy="3.57341"/>
<feGaussianBlur stdDeviation="1.33317"/>
<feComposite in2="hardAlpha" operator="arithmetic" k2="-1" k3="1"/>
<feColorMatrix type="matrix" values="0 0 0 0 1 0 0 0 0 0.91436 0 0 0 0 0.91436 0 0 0 0.63 0"/>
<feBlend mode="normal" in2="shape" result="effect2_innerShadow_1681_18816"/>
</filter>
<filter id="filter5_i_1681_18816" x="31.4617" y="36.9834" width="30.5597" height="34.2866" filterUnits="userSpaceOnUse" color-interpolation-filters="sRGB">
<feFlood flood-opacity="0" result="BackgroundImageFix"/>
<feBlend mode="normal" in="SourceGraphic" in2="BackgroundImageFix" result="shape"/>
<feColorMatrix in="SourceAlpha" type="matrix" values="0 0 0 0 0 0 0 0 0 0 0 0 0 0 0 0 0 0 127 0" result="hardAlpha"/>
<feOffset dx="-2.46013" dy="7.3804"/>
<feGaussianBlur stdDeviation="5.84281"/>
<feComposite in2="hardAlpha" operator="arithmetic" k2="-1" k3="1"/>
<feColorMatrix type="matrix" values="0 0 0 0 1 0 0 0 0 1 0 0 0 0 1 0 0 0 1 0"/>
<feBlend mode="multiply" in2="shape" result="effect1_innerShadow_1681_18816"/>
</filter>
<linearGradient id="paint0_linear_1681_18816" x1="83.5571" y1="32.8571" x2="2.24081" y2="87.1379" gradientUnits="userSpaceOnUse">
<stop stop-color="#9A58D5"/>
<stop offset="0.508731" stop-color="#FF467C"/>
<stop offset="0.939608" stop-color="#FFCA56"/>
</linearGradient>
<linearGradient id="paint1_linear_1681_18816" x1="98.6975" y1="141.181" x2="4.61173" y2="-2.9565" gradientUnits="userSpaceOnUse">
<stop offset="0.106893" stop-color="#B452D5"/>
<stop offset="0.584253" stop-color="#5E79E8"/>
<stop offset="1" stop-color="#62D9FC"/>
</linearGradient>
<linearGradient id="paint2_linear_1681_18816" x1="40.3609" y1="26.8923" x2="40.3609" y2="78.247" gradientUnits="userSpaceOnUse">
<stop offset="0.167355" stop-color="white"/>
<stop offset="1" stop-color="white" stop-opacity="0"/>
</linearGradient>
<linearGradient id="paint3_linear_1681_18816" x1="48.9835" y1="49.8229" x2="47.9719" y2="70.4574" gradientUnits="userSpaceOnUse">
<stop stop-color="white"/>
</linearGradient>
</defs>
</svg>
