<svg width="120" height="122" viewBox="0 0 120 122" fill="none" xmlns="http://www.w3.org/2000/svg">
<g filter="url(#filter0_bi_1681_18736)">
<circle cx="109.958" cy="80.9583" r="3.95833" fill="url(#paint0_linear_1681_18736)" fill-opacity="0.9"/>
</g>
<g filter="url(#filter1_bi_1681_18736)">
<circle cx="29.2708" cy="91.2708" r="3.27084" fill="url(#paint1_linear_1681_18736)" fill-opacity="0.9"/>
</g>
<g filter="url(#filter2_bi_1681_18736)">
<circle cx="11.1994" cy="49.8488" r="2.28726" fill="url(#paint2_linear_1681_18736)" fill-opacity="0.9"/>
</g>
<g filter="url(#filter3_bi_1681_18736)">
<circle cx="91.3515" cy="21.9384" r="5.57024" fill="url(#paint3_linear_1681_18736)" fill-opacity="0.9"/>
</g>
<g opacity="0.56" filter="url(#filter4_f_1681_18736)">
<ellipse cx="50.5206" cy="91.8494" rx="24.5938" ry="11.9002" fill="#9A58D5" fill-opacity="0.62"/>
</g>
<g filter="url(#filter5_i_1681_18736)">
<path fill-rule="evenodd" clip-rule="evenodd" d="M41.6137 28.8221C41.6137 26.7112 43.3249 25 45.4357 25H53.6674C55.7782 25 57.4894 26.7112 57.4894 28.8221V33.2279C59.6444 33.924 61.6909 34.8615 63.597 36.0084L66.8915 32.7139C68.3841 31.2213 70.8041 31.2213 72.2967 32.7139L78.1174 38.5346C79.61 40.0272 79.61 42.4472 78.1174 43.9398L74.5092 47.548C75.4726 49.3738 76.25 51.3129 76.8161 53.3403H82.0133C84.1242 53.3403 85.8354 55.0515 85.8354 57.1623V65.394C85.8354 67.5048 84.1242 69.216 82.0133 69.216H76.8208C76.2553 71.2458 75.478 73.1873 74.5144 75.0153L78.1191 78.62C79.6117 80.1126 79.6117 82.5326 78.1191 84.0252L72.2984 89.8458C70.8058 91.3384 68.3858 91.3384 66.8932 89.8458L63.6063 86.559C61.6976 87.7085 59.6479 88.6479 57.4894 89.3451V93.7434C57.4894 95.8543 55.7782 97.5655 53.6674 97.5655H45.4357C43.3249 97.5655 41.6137 95.8543 41.6137 93.7434V89.9774C39.1724 89.4005 36.8484 88.5201 34.6837 87.3782L32.2121 89.8498C30.7195 91.3424 28.2995 91.3424 26.8069 89.8498L20.9862 84.0292C19.4936 82.5365 19.4936 80.1166 20.9862 78.6239L23.1429 76.4673C21.7944 74.2269 20.7354 71.7926 20.0175 69.216H17.0896C14.9788 69.216 13.2676 67.5049 13.2676 65.394L13.2676 57.1623C13.2676 55.0515 14.9788 53.3403 17.0896 53.3403H20.0222C20.7406 50.7677 21.7991 48.337 23.1464 46.0999L20.9828 43.9363C19.4902 42.4437 19.4902 40.0237 20.9828 38.5311L26.8035 32.7105C28.2961 31.2179 30.7161 31.2179 32.2087 32.7105L34.6898 35.1916C36.8528 34.0513 39.1747 33.172 41.6137 32.5956V28.8221ZM49.552 75.9931C57.676 75.9931 64.2618 69.4073 64.2618 61.2833C64.2618 53.1593 57.676 46.5735 49.552 46.5735C41.428 46.5735 34.8422 53.1593 34.8422 61.2833C34.8422 69.4073 41.428 75.9931 49.552 75.9931Z" fill="url(#paint4_linear_1681_18736)"/>
<path fill-rule="evenodd" clip-rule="evenodd" d="M41.6137 28.8221C41.6137 26.7112 43.3249 25 45.4357 25H53.6674C55.7782 25 57.4894 26.7112 57.4894 28.8221V33.2279C59.6444 33.924 61.6909 34.8615 63.597 36.0084L66.8915 32.7139C68.3841 31.2213 70.8041 31.2213 72.2967 32.7139L78.1174 38.5346C79.61 40.0272 79.61 42.4472 78.1174 43.9398L74.5092 47.548C75.4726 49.3738 76.25 51.3129 76.8161 53.3403H82.0133C84.1242 53.3403 85.8354 55.0515 85.8354 57.1623V65.394C85.8354 67.5048 84.1242 69.216 82.0133 69.216H76.8208C76.2553 71.2458 75.478 73.1873 74.5144 75.0153L78.1191 78.62C79.6117 80.1126 79.6117 82.5326 78.1191 84.0252L72.2984 89.8458C70.8058 91.3384 68.3858 91.3384 66.8932 89.8458L63.6063 86.559C61.6976 87.7085 59.6479 88.6479 57.4894 89.3451V93.7434C57.4894 95.8543 55.7782 97.5655 53.6674 97.5655H45.4357C43.3249 97.5655 41.6137 95.8543 41.6137 93.7434V89.9774C39.1724 89.4005 36.8484 88.5201 34.6837 87.3782L32.2121 89.8498C30.7195 91.3424 28.2995 91.3424 26.8069 89.8498L20.9862 84.0292C19.4936 82.5365 19.4936 80.1166 20.9862 78.6239L23.1429 76.4673C21.7944 74.2269 20.7354 71.7926 20.0175 69.216H17.0896C14.9788 69.216 13.2676 67.5049 13.2676 65.394L13.2676 57.1623C13.2676 55.0515 14.9788 53.3403 17.0896 53.3403H20.0222C20.7406 50.7677 21.7991 48.337 23.1464 46.0999L20.9828 43.9363C19.4902 42.4437 19.4902 40.0237 20.9828 38.5311L26.8035 32.7105C28.2961 31.2179 30.7161 31.2179 32.2087 32.7105L34.6898 35.1916C36.8528 34.0513 39.1747 33.172 41.6137 32.5956V28.8221ZM49.552 75.9931C57.676 75.9931 64.2618 69.4073 64.2618 61.2833C64.2618 53.1593 57.676 46.5735 49.552 46.5735C41.428 46.5735 34.8422 53.1593 34.8422 61.2833C34.8422 69.4073 41.428 75.9931 49.552 75.9931Z" fill="url(#paint5_linear_1681_18736)" fill-opacity="0.9"/>
</g>
<g filter="url(#filter6_i_1681_18736)">
<path fill-rule="evenodd" clip-rule="evenodd" d="M78.1122 38.9665C78.1122 37.5153 79.2887 36.3389 80.7399 36.3389H86.3992C87.8504 36.3389 89.0268 37.5153 89.0268 38.9665V41.9974C90.5076 42.4761 91.9138 43.1206 93.2235 43.909L95.4902 41.6423C96.5164 40.6161 98.1802 40.6161 99.2063 41.6423L103.208 45.644C104.234 46.6702 104.234 48.3339 103.208 49.3601L100.724 51.8437C101.386 53.098 101.92 54.4302 102.309 55.8229H105.887C107.338 55.8229 108.514 56.9993 108.514 58.4506V64.1098C108.514 65.561 107.338 66.7375 105.887 66.7375H102.312C101.924 68.1325 101.389 69.4669 100.727 70.7233L103.207 73.2032C104.233 74.2294 104.233 75.8932 103.207 76.9193L99.2055 80.921C98.1793 81.9472 96.5155 81.9472 95.4894 80.921L93.2285 78.6602C91.9174 79.4499 90.5095 80.0955 89.027 80.5748V83.6001C89.027 85.0514 87.8505 86.2278 86.3993 86.2278H80.74C79.2888 86.2278 78.1123 85.0514 78.1123 83.6001V81.0123C76.4331 80.616 74.8346 80.0107 73.3457 79.2256L71.648 80.9233C70.6218 81.9494 68.9581 81.9494 67.9319 80.9233L63.9302 76.9216C62.904 75.8954 62.904 74.2316 63.9302 73.2055L65.4101 71.7255C64.4823 70.1845 63.7537 68.5099 63.2599 66.7375H61.2527C59.8014 66.7375 58.625 65.561 58.625 64.1098L58.625 58.4506C58.625 56.9993 59.8014 55.8229 61.2527 55.8229H63.2632C63.7573 54.0536 64.4854 52.382 65.4121 50.8435L63.9262 49.3576C62.9001 48.3314 62.9001 46.6677 63.9262 45.6415L67.928 41.6398C68.9541 40.6136 70.6179 40.6136 71.644 41.6398L73.3491 43.3448C74.837 42.5606 76.4343 41.956 78.1122 41.5599V38.9665ZM83.5649 71.3968C89.1502 71.3968 93.6779 66.8691 93.6779 61.2838C93.6779 55.6985 89.1502 51.1708 83.5649 51.1708C77.9797 51.1708 73.4519 55.6985 73.4519 61.2838C73.4519 66.8691 77.9797 71.3968 83.5649 71.3968Z" fill="url(#paint6_linear_1681_18736)"/>
</g>
<defs>
<filter id="filter0_bi_1681_18736" x="104.254" y="75.2538" width="11.4095" height="13.1557" filterUnits="userSpaceOnUse" color-interpolation-filters="sRGB">
<feFlood flood-opacity="0" result="BackgroundImageFix"/>
<feGaussianBlur in="BackgroundImageFix" stdDeviation="0.873119"/>
<feComposite in2="SourceAlpha" operator="in" result="effect1_backgroundBlur_1681_18736"/>
<feBlend mode="normal" in="SourceGraphic" in2="effect1_backgroundBlur_1681_18736" result="shape"/>
<feColorMatrix in="SourceAlpha" type="matrix" values="0 0 0 0 0 0 0 0 0 0 0 0 0 0 0 0 0 0 127 0" result="hardAlpha"/>
<feOffset dx="0.873119" dy="3.49248"/>
<feGaussianBlur stdDeviation="2.1828"/>
<feComposite in2="hardAlpha" operator="arithmetic" k2="-1" k3="1"/>
<feColorMatrix type="matrix" values="0 0 0 0 1 0 0 0 0 1 0 0 0 0 1 0 0 0 0.47 0"/>
<feBlend mode="normal" in2="shape" result="effect2_innerShadow_1681_18736"/>
</filter>
<filter id="filter1_bi_1681_18736" x="24.5571" y="86.5571" width="9.42789" height="10.8708" filterUnits="userSpaceOnUse" color-interpolation-filters="sRGB">
<feFlood flood-opacity="0" result="BackgroundImageFix"/>
<feGaussianBlur in="BackgroundImageFix" stdDeviation="0.721474"/>
<feComposite in2="SourceAlpha" operator="in" result="effect1_backgroundBlur_1681_18736"/>
<feBlend mode="normal" in="SourceGraphic" in2="effect1_backgroundBlur_1681_18736" result="shape"/>
<feColorMatrix in="SourceAlpha" type="matrix" values="0 0 0 0 0 0 0 0 0 0 0 0 0 0 0 0 0 0 127 0" result="hardAlpha"/>
<feOffset dx="0.721474" dy="2.8859"/>
<feGaussianBlur stdDeviation="1.80369"/>
<feComposite in2="hardAlpha" operator="arithmetic" k2="-1" k3="1"/>
<feColorMatrix type="matrix" values="0 0 0 0 1 0 0 0 0 1 0 0 0 0 1 0 0 0 0.47 0"/>
<feBlend mode="normal" in2="shape" result="effect2_innerShadow_1681_18736"/>
</filter>
<filter id="filter2_bi_1681_18736" x="7.90307" y="46.5525" width="6.59229" height="7.60133" filterUnits="userSpaceOnUse" color-interpolation-filters="sRGB">
<feFlood flood-opacity="0" result="BackgroundImageFix"/>
<feGaussianBlur in="BackgroundImageFix" stdDeviation="0.504518"/>
<feComposite in2="SourceAlpha" operator="in" result="effect1_backgroundBlur_1681_18736"/>
<feBlend mode="normal" in="SourceGraphic" in2="effect1_backgroundBlur_1681_18736" result="shape"/>
<feColorMatrix in="SourceAlpha" type="matrix" values="0 0 0 0 0 0 0 0 0 0 0 0 0 0 0 0 0 0 127 0" result="hardAlpha"/>
<feOffset dx="0.504518" dy="2.01807"/>
<feGaussianBlur stdDeviation="1.2613"/>
<feComposite in2="hardAlpha" operator="arithmetic" k2="-1" k3="1"/>
<feColorMatrix type="matrix" values="0 0 0 0 1 0 0 0 0 1 0 0 0 0 1 0 0 0 0.47 0"/>
<feBlend mode="normal" in2="shape" result="effect2_innerShadow_1681_18736"/>
</filter>
<filter id="filter3_bi_1681_18736" x="83.3239" y="13.9108" width="16.0553" height="18.5126" filterUnits="userSpaceOnUse" color-interpolation-filters="sRGB">
<feFlood flood-opacity="0" result="BackgroundImageFix"/>
<feGaussianBlur in="BackgroundImageFix" stdDeviation="1.22867"/>
<feComposite in2="SourceAlpha" operator="in" result="effect1_backgroundBlur_1681_18736"/>
<feBlend mode="normal" in="SourceGraphic" in2="effect1_backgroundBlur_1681_18736" result="shape"/>
<feColorMatrix in="SourceAlpha" type="matrix" values="0 0 0 0 0 0 0 0 0 0 0 0 0 0 0 0 0 0 127 0" result="hardAlpha"/>
<feOffset dx="1.22867" dy="4.91467"/>
<feGaussianBlur stdDeviation="3.07167"/>
<feComposite in2="hardAlpha" operator="arithmetic" k2="-1" k3="1"/>
<feColorMatrix type="matrix" values="0 0 0 0 1 0 0 0 0 1 0 0 0 0 1 0 0 0 0.47 0"/>
<feBlend mode="normal" in2="shape" result="effect2_innerShadow_1681_18736"/>
</filter>
<filter id="filter4_f_1681_18736" x="8.46403" y="62.4865" width="84.113" height="58.7262" filterUnits="userSpaceOnUse" color-interpolation-filters="sRGB">
<feFlood flood-opacity="0" result="BackgroundImageFix"/>
<feBlend mode="normal" in="SourceGraphic" in2="BackgroundImageFix" result="shape"/>
<feGaussianBlur stdDeviation="8.73137" result="effect1_foregroundBlur_1681_18736"/>
</filter>
<filter id="filter5_i_1681_18736" x="13.2676" y="25" width="76.3894" height="72.5654" filterUnits="userSpaceOnUse" color-interpolation-filters="sRGB">
<feFlood flood-opacity="0" result="BackgroundImageFix"/>
<feBlend mode="normal" in="SourceGraphic" in2="BackgroundImageFix" result="shape"/>
<feColorMatrix in="SourceAlpha" type="matrix" values="0 0 0 0 0 0 0 0 0 0 0 0 0 0 0 0 0 0 127 0" result="hardAlpha"/>
<feOffset dx="3.82206"/>
<feGaussianBlur stdDeviation="1.91103"/>
<feComposite in2="hardAlpha" operator="arithmetic" k2="-1" k3="1"/>
<feColorMatrix type="matrix" values="0 0 0 0 1 0 0 0 0 1 0 0 0 0 1 0 0 0 0.35 0"/>
<feBlend mode="normal" in2="shape" result="effect1_innerShadow_1681_18736"/>
</filter>
<filter id="filter6_i_1681_18736" x="58.625" y="36.3389" width="52.5173" height="49.8887" filterUnits="userSpaceOnUse" color-interpolation-filters="sRGB">
<feFlood flood-opacity="0" result="BackgroundImageFix"/>
<feBlend mode="normal" in="SourceGraphic" in2="BackgroundImageFix" result="shape"/>
<feColorMatrix in="SourceAlpha" type="matrix" values="0 0 0 0 0 0 0 0 0 0 0 0 0 0 0 0 0 0 127 0" result="hardAlpha"/>
<feOffset dx="2.62767"/>
<feGaussianBlur stdDeviation="1.31383"/>
<feComposite in2="hardAlpha" operator="arithmetic" k2="-1" k3="1"/>
<feColorMatrix type="matrix" values="0 0 0 0 1 0 0 0 0 1 0 0 0 0 1 0 0 0 0.35 0"/>
<feBlend mode="normal" in2="shape" result="effect1_innerShadow_1681_18736"/>
</filter>
<linearGradient id="paint0_linear_1681_18736" x1="104.886" y1="84.8405" x2="118.298" y2="79.2065" gradientUnits="userSpaceOnUse">
<stop offset="0.0675263" stop-color="#CD50ED"/>
<stop offset="0.755238" stop-color="#2ABDD1" stop-opacity="0.88"/>
</linearGradient>
<linearGradient id="paint1_linear_1681_18736" x1="25.0791" y1="94.4788" x2="36.1623" y2="89.8233" gradientUnits="userSpaceOnUse">
<stop offset="0.0675263" stop-color="#CD50ED"/>
<stop offset="0.755238" stop-color="#2ABDD1" stop-opacity="0.88"/>
</linearGradient>
<linearGradient id="paint2_linear_1681_18736" x1="8.26813" y1="52.0921" x2="16.0185" y2="48.8365" gradientUnits="userSpaceOnUse">
<stop offset="0.0675263" stop-color="#CD50ED"/>
<stop offset="0.755238" stop-color="#2ABDD1" stop-opacity="0.88"/>
</linearGradient>
<linearGradient id="paint3_linear_1681_18736" x1="84.2129" y1="27.4015" x2="103.088" y2="19.4732" gradientUnits="userSpaceOnUse">
<stop offset="0.0675263" stop-color="#CD50ED"/>
<stop offset="0.755238" stop-color="#2ABDD1" stop-opacity="0.88"/>
</linearGradient>
<linearGradient id="paint4_linear_1681_18736" x1="-65.1843" y1="25" x2="60.752" y2="84.0096" gradientUnits="userSpaceOnUse">
<stop stop-color="#9600FF"/>
<stop offset="1" stop-color="#5E78E8"/>
</linearGradient>
<linearGradient id="paint5_linear_1681_18736" x1="-3.6375" y1="111.516" x2="87.9544" y2="12.8199" gradientUnits="userSpaceOnUse">
<stop offset="0.106893" stop-color="#B452D5"/>
<stop offset="0.584253" stop-color="#5E79E8"/>
<stop offset="1" stop-color="#62D9FC"/>
</linearGradient>
<linearGradient id="paint6_linear_1681_18736" x1="4.69034" y1="36.3389" x2="91.2706" y2="76.9067" gradientUnits="userSpaceOnUse">
<stop stop-color="#46395D"/>
</linearGradient>
</defs>
</svg>
