<svg width="120" height="128" viewBox="0 0 120 128" fill="none" xmlns="http://www.w3.org/2000/svg">
<g filter="url(#filter0_bi_1681_18717)">
<circle cx="90.2494" cy="97.9857" r="3.55311" fill="url(#paint0_linear_1681_18717)" fill-opacity="0.9"/>
</g>
<g filter="url(#filter1_bi_1681_18717)">
<path d="M26.6431 104.358C27.8176 104.583 27.8382 106.257 26.6696 106.51L25.9278 106.672C25.4977 106.765 25.1648 107.106 25.0819 107.539L24.9391 108.284C24.714 109.459 23.0401 109.479 22.7863 108.311L22.6251 107.569C22.5317 107.139 22.1905 106.806 21.7582 106.723L21.0127 106.58C19.8382 106.355 19.8176 104.681 20.9862 104.427L21.728 104.266C22.1581 104.173 22.491 103.831 22.5738 103.399L22.7167 102.654C22.9417 101.479 24.6157 101.459 24.8695 102.627L25.0307 103.369C25.1241 103.799 25.4653 104.132 25.8976 104.215L26.6431 104.358Z" fill="url(#paint1_linear_1681_18717)" fill-opacity="0.9"/>
</g>
<g filter="url(#filter2_bi_1681_18717)">
<circle cx="89.824" cy="39.2888" r="7.39137" fill="url(#paint2_linear_1681_18717)" fill-opacity="0.9"/>
</g>
<g opacity="0.56" filter="url(#filter3_f_1681_18717)">
<ellipse cx="53.2969" cy="100.827" rx="22.0293" ry="10.6593" fill="#9A58D5" fill-opacity="0.62"/>
</g>
<path d="M92.0317 82.96C91.7846 84.9713 90.5542 86.7283 88.7486 87.6482L55.427 104.623C53.2508 105.732 50.623 105.435 48.7496 103.868L21.3457 80.9477C19.6624 79.5398 18.8658 77.3357 19.2601 75.1769L25.5111 40.9567C25.9025 38.8145 27.4069 37.0437 29.4578 36.3115L62.7542 24.4238C64.5262 23.7911 66.4911 24.0123 68.0781 25.0231L93.6486 41.3091C95.6307 42.5714 96.7105 44.8608 96.4241 47.1932L92.0317 82.96Z" fill="url(#paint3_linear_1681_18717)" fill-opacity="0.9"/>
<g filter="url(#filter4_bi_1681_18717)">
<path d="M48.5957 24.1092C50.4816 23.0204 52.8052 23.0204 54.6911 24.1092L84.8443 41.5182C86.7302 42.607 87.892 44.6192 87.892 46.7969V81.6149C87.892 83.7926 86.7302 85.8048 84.8443 86.8936L54.691 104.303C52.8051 105.391 50.4816 105.391 48.5957 104.303L18.4424 86.8936C16.5565 85.8048 15.3948 83.7925 15.3948 81.6149V46.7969C15.3948 44.6192 16.5565 42.607 18.4424 41.5182L48.5957 24.1092Z" fill="url(#paint4_linear_1681_18717)" fill-opacity="0.9"/>
<path d="M48.5957 24.1092C50.4816 23.0204 52.8052 23.0204 54.6911 24.1092L84.8443 41.5182C86.7302 42.607 87.892 44.6192 87.892 46.7969V81.6149C87.892 83.7926 86.7302 85.8048 84.8443 86.8936L54.691 104.303C52.8051 105.391 50.4816 105.391 48.5957 104.303L18.4424 86.8936C16.5565 85.8048 15.3948 83.7925 15.3948 81.6149V46.7969C15.3948 44.6192 16.5565 42.607 18.4424 41.5182L48.5957 24.1092Z" fill="url(#paint5_linear_1681_18717)" fill-opacity="0.9"/>
</g>
<path d="M56.542 102.444L71.4894 75.802C79.7112 61.1476 69.296 43.0268 52.4949 42.7548C43.7313 42.6129 35.7052 47.6424 32.0112 55.5907L18.4991 84.6648C18.0013 85.736 18.4225 87.0098 19.4609 87.573L42.2674 99.9426C45.492 101.692 49.1143 102.576 52.782 102.511L56.542 102.444Z" fill="url(#paint6_linear_1681_18717)" fill-opacity="0.22"/>
<path d="M48.9828 34.449C50.6297 33.4981 52.6588 33.4981 54.3058 34.449L76.0846 47.023C77.7315 47.9738 78.746 49.7311 78.746 51.6328V76.7808C78.746 78.6825 77.7315 80.4397 76.0846 81.3906L54.3058 93.9646C52.6588 94.9154 50.6297 94.9154 48.9828 93.9646L27.204 81.3906C25.5571 80.4397 24.5425 78.6825 24.5425 76.7808V51.6328C24.5425 49.7311 25.5571 47.9738 27.204 47.023L48.9828 34.449Z" stroke="white" stroke-opacity="0.9" stroke-width="1.54474"/>
<path d="M51.1574 55.4044C51.3675 54.2042 53.0901 54.2042 53.3002 55.4044L54.0286 59.5651C54.1298 60.1433 54.6715 60.5369 55.2527 60.4545L59.4349 59.8615C60.6412 59.6904 61.1736 61.3287 60.097 61.8994L56.365 63.8779C55.8464 64.1528 55.6395 64.7896 55.8975 65.3169L57.7538 69.1111C58.2893 70.2056 56.8957 71.2181 56.0203 70.3706L52.9854 67.4327C52.5636 67.0244 51.894 67.0244 51.4723 67.4327L48.4374 70.3706C47.562 71.2181 46.1684 70.2056 46.7039 69.1111L48.5602 65.3169C48.8182 64.7896 48.6113 64.1528 48.0926 63.8779L44.3606 61.8994C43.2841 61.3287 43.8164 59.6904 45.0228 59.8615L49.205 60.4545C49.7861 60.5369 50.3278 60.1433 50.4291 59.5652L51.1574 55.4044Z" fill="url(#paint7_linear_1681_18717)"/>
<defs>
<filter id="filter0_bi_1681_18717" x="85.1288" y="92.8651" width="10.2414" height="11.8089" filterUnits="userSpaceOnUse" color-interpolation-filters="sRGB">
<feFlood flood-opacity="0" result="BackgroundImageFix"/>
<feGaussianBlur in="BackgroundImageFix" stdDeviation="0.783736"/>
<feComposite in2="SourceAlpha" operator="in" result="effect1_backgroundBlur_1681_18717"/>
<feBlend mode="normal" in="SourceGraphic" in2="effect1_backgroundBlur_1681_18717" result="shape"/>
<feColorMatrix in="SourceAlpha" type="matrix" values="0 0 0 0 0 0 0 0 0 0 0 0 0 0 0 0 0 0 127 0" result="hardAlpha"/>
<feOffset dx="0.783736" dy="3.13494"/>
<feGaussianBlur stdDeviation="1.95934"/>
<feComposite in2="hardAlpha" operator="arithmetic" k2="-1" k3="1"/>
<feColorMatrix type="matrix" values="0 0 0 0 1 0 0 0 0 1 0 0 0 0 1 0 0 0 0.47 0"/>
<feBlend mode="normal" in2="shape" result="effect2_innerShadow_1681_18717"/>
</filter>
<filter id="filter1_bi_1681_18717" x="17.9236" y="99.5642" width="11.8091" height="14.0066" filterUnits="userSpaceOnUse" color-interpolation-filters="sRGB">
<feFlood flood-opacity="0" result="BackgroundImageFix"/>
<feGaussianBlur in="BackgroundImageFix" stdDeviation="1.09875"/>
<feComposite in2="SourceAlpha" operator="in" result="effect1_backgroundBlur_1681_18717"/>
<feBlend mode="normal" in="SourceGraphic" in2="effect1_backgroundBlur_1681_18717" result="shape"/>
<feColorMatrix in="SourceAlpha" type="matrix" values="0 0 0 0 0 0 0 0 0 0 0 0 0 0 0 0 0 0 127 0" result="hardAlpha"/>
<feOffset dx="1.09875" dy="4.395"/>
<feGaussianBlur stdDeviation="2.74687"/>
<feComposite in2="hardAlpha" operator="arithmetic" k2="-1" k3="1"/>
<feColorMatrix type="matrix" values="0 0 0 0 1 0 0 0 0 1 0 0 0 0 1 0 0 0 0.47 0"/>
<feBlend mode="normal" in2="shape" result="effect2_innerShadow_1681_18717"/>
</filter>
<filter id="filter2_bi_1681_18717" x="79.1719" y="28.6367" width="21.3047" height="24.5654" filterUnits="userSpaceOnUse" color-interpolation-filters="sRGB">
<feFlood flood-opacity="0" result="BackgroundImageFix"/>
<feGaussianBlur in="BackgroundImageFix" stdDeviation="1.63037"/>
<feComposite in2="SourceAlpha" operator="in" result="effect1_backgroundBlur_1681_18717"/>
<feBlend mode="normal" in="SourceGraphic" in2="effect1_backgroundBlur_1681_18717" result="shape"/>
<feColorMatrix in="SourceAlpha" type="matrix" values="0 0 0 0 0 0 0 0 0 0 0 0 0 0 0 0 0 0 127 0" result="hardAlpha"/>
<feOffset dx="1.63037" dy="6.52148"/>
<feGaussianBlur stdDeviation="4.07592"/>
<feComposite in2="hardAlpha" operator="arithmetic" k2="-1" k3="1"/>
<feColorMatrix type="matrix" values="0 0 0 0 1 0 0 0 0 1 0 0 0 0 1 0 0 0 0.47 0"/>
<feBlend mode="normal" in2="shape" result="effect2_innerShadow_1681_18717"/>
</filter>
<filter id="filter3_f_1681_18717" x="15.6258" y="74.5262" width="75.3422" height="52.602" filterUnits="userSpaceOnUse" color-interpolation-filters="sRGB">
<feFlood flood-opacity="0" result="BackgroundImageFix"/>
<feBlend mode="normal" in="SourceGraphic" in2="BackgroundImageFix" result="shape"/>
<feGaussianBlur stdDeviation="7.8209" result="effect1_foregroundBlur_1681_18717"/>
</filter>
<filter id="filter4_bi_1681_18717" x="11.7373" y="19.6358" width="79.8115" height="89.1406" filterUnits="userSpaceOnUse" color-interpolation-filters="sRGB">
<feFlood flood-opacity="0" result="BackgroundImageFix"/>
<feGaussianBlur in="BackgroundImageFix" stdDeviation="1.8286"/>
<feComposite in2="SourceAlpha" operator="in" result="effect1_backgroundBlur_1681_18717"/>
<feBlend mode="normal" in="SourceGraphic" in2="effect1_backgroundBlur_1681_18717" result="shape"/>
<feColorMatrix in="SourceAlpha" type="matrix" values="0 0 0 0 0 0 0 0 0 0 0 0 0 0 0 0 0 0 127 0" result="hardAlpha"/>
<feOffset dy="3.26756"/>
<feGaussianBlur stdDeviation="1.21906"/>
<feComposite in2="hardAlpha" operator="arithmetic" k2="-1" k3="1"/>
<feColorMatrix type="matrix" values="0 0 0 0 1 0 0 0 0 0.91436 0 0 0 0 0.91436 0 0 0 0.63 0"/>
<feBlend mode="normal" in2="shape" result="effect2_innerShadow_1681_18717"/>
</filter>
<linearGradient id="paint0_linear_1681_18717" x1="85.6959" y1="101.47" x2="97.7356" y2="96.4132" gradientUnits="userSpaceOnUse">
<stop offset="0.0675263" stop-color="#CD50ED"/>
<stop offset="0.755238" stop-color="#2ABDD1" stop-opacity="0.88"/>
</linearGradient>
<linearGradient id="paint1_linear_1681_18717" x1="15.7611" y1="95.1925" x2="27.6201" y2="122.48" gradientUnits="userSpaceOnUse">
<stop offset="0.0675263" stop-color="#CD50ED"/>
<stop offset="0.755238" stop-color="#2ABDD1" stop-opacity="0.88"/>
</linearGradient>
<linearGradient id="paint2_linear_1681_18717" x1="80.3516" y1="46.538" x2="105.397" y2="36.0177" gradientUnits="userSpaceOnUse">
<stop offset="0.0675263" stop-color="#CD50ED"/>
<stop offset="0.755238" stop-color="#2ABDD1" stop-opacity="0.88"/>
</linearGradient>
<linearGradient id="paint3_linear_1681_18717" x1="60.8481" y1="23.8811" x2="33.4182" y2="116.495" gradientUnits="userSpaceOnUse">
<stop stop-color="#33244B"/>
</linearGradient>
<linearGradient id="paint4_linear_1681_18717" x1="29.7048" y1="80.3392" x2="86.8542" y2="34.4355" gradientUnits="userSpaceOnUse">
<stop stop-color="#5E7AE8"/>
<stop offset="1" stop-color="#70CAF9"/>
</linearGradient>
<linearGradient id="paint5_linear_1681_18717" x1="11.9872" y1="144.954" x2="72.9245" y2="26.1408" gradientUnits="userSpaceOnUse">
<stop offset="0.106893" stop-color="#B452D5"/>
<stop offset="0.584253" stop-color="#5E79E8"/>
<stop offset="1" stop-color="#62D9FC"/>
</linearGradient>
<linearGradient id="paint6_linear_1681_18717" x1="44.1989" y1="43.3568" x2="44.1989" y2="94.9924" gradientUnits="userSpaceOnUse">
<stop offset="0.167355" stop-color="white"/>
<stop offset="1" stop-color="white" stop-opacity="0"/>
</linearGradient>
<linearGradient id="paint7_linear_1681_18717" x1="52.9846" y1="61.9589" x2="52.2288" y2="77.3747" gradientUnits="userSpaceOnUse">
<stop stop-color="white"/>
</linearGradient>
</defs>
</svg>
